<?xml version="1.0" encoding="UTF-8"?>
<!DOCTYPE svg PUBLIC "-//W3C//DTD SVG 1.1//EN" "http://www.w3.org/Graphics/SVG/1.1/DTD/svg11.dtd">
<!-- Creator: CorelDRAW X7 -->
<svg xmlns="http://www.w3.org/2000/svg" xml:space="preserve" width="172.591mm" height="158.658mm" version="1.1" style="shape-rendering:geometricPrecision; text-rendering:geometricPrecision; image-rendering:optimizeQuality; fill-rule:evenodd; clip-rule:evenodd"
viewBox="0 0 178639 164217"
 xmlns:xlink="http://www.w3.org/1999/xlink">
 <defs>
  <style type="text/css">
   <![CDATA[
    .fil0 {fill:#28C8C6}
    .fil1 {fill:#FCFEFE}
   ]]>
  </style>
 </defs>
 <g id="Camada_x0020_1">
  <metadata id="CorelCorpID_0Corel-Layer"/>
  <rect class="fil0" width="178639" height="164217" rx="15817" ry="15817"/>
  <path class="fil1" d="M89270 75322l-20072 -124 0 13632 20045 11 -123 19759 26839 -26009 -26758 -26994 69 19725zm49 -47177c29804,0 53964,24160 53964,53964 0,29803 -24160,53963 -53964,53963 -29803,0 -53963,-24160 -53963,-53963 0,-29804 24160,-53964 53963,-53964zm0 12766c22753,0 41198,18445 41198,41198 0,22753 -18445,41198 -41198,41198 -22753,0 -41198,-18445 -41198,-41198 0,-22753 18445,-41198 41198,-41198z"/>
 </g>
</svg>
